<?xml version="1.0" encoding="UTF-8"?>
<svg id="Layer_1" data-name="Layer 1" xmlns="http://www.w3.org/2000/svg" viewBox="0 0 406.95 399.22">
  <defs>
    <style>
      .cls-1 {
        stroke-width: 0px;
      }
    </style>
  </defs>
  <path class="cls-1" d="m203.44,399.02c-35.04,1.6-66.85-6.75-97.2-21.94-18.84-9.43-35.5-21.88-50.23-36.6-15.6-15.58-28.28-33.48-37.65-53.71C7.65,263.66,1.71,239.62.33,214.15c-1.49-27.47,2.04-54.16,10.65-80.11,4.57-13.76,11.39-26.61,19.35-38.79,13.42-20.52,29.76-38.41,49.12-53.4,20.09-15.55,42.79-25.82,67.11-33.11C166.72,2.71,187.14-.6,208.06.09c33.62,1.11,65.2,9.85,94.75,26.2,17.02,9.42,32.68,20.57,46.53,34.09,19.41,18.94,33.58,41.34,43.76,66.61,6.67,16.57,10.65,33.64,13.06,51.06,1.4,10.15.52,20.62.53,30.95.04,23.92-5.25,46.7-13.96,68.92-9.83,25.07-24.52,46.89-43.54,65.66-21.78,21.49-47.38,37.04-76.74,46.14-22.78,7.06-46.09,10.34-69.01,9.29Zm-123.9-192.74c0,16.67.23,33.34-.05,50-.52,31.29,25.32,51.11,56.19,48.29,12.53-1.14,22.25-7.51,31.94-14.24,10.39-7.21,20.46-14.87,30.66-22.35,4.04-2.96,7.86-2.41,12.07.01,11.14,6.42,21.02,14.67,31.38,22.14,13.24,9.54,26.93,15.31,43.54,13.92,16.81-1.41,39.78-15.15,41.56-39.7,1.01-13.99-.63-27.9.48-41.88.98-12.43-1.05-24.93-.74-37.44.29-11.66,0-23.33.06-35,.03-7.2-1.92-14-5.48-20-13.76-23.22-45.13-30.92-68.23-16.96-15.67,9.47-30.53,20.19-45.64,30.51-3.46,2.37-5.9,2.1-9.34-.25-13.88-9.49-26.39-20.83-40.96-29.4-14.42-8.48-28.93-10.37-44.88-4.49-20.63,7.62-32.49,23.47-32.53,45.34-.03,17.17,0,34.33-.02,51.5Z"/>
  <path class="cls-1" d="m297.69,206.93c0,17.16.05,34.33-.02,51.49-.05,12.55-13.74,21.79-25.42,17.17-4.35-1.72-8.19-4.28-11.89-7.23-10.15-8.09-20.56-15.86-30.86-23.75-15.2-11.63-30.18-23.57-45.67-34.8-12.28-8.9-23.45-19.18-35.89-27.83-1.54-1.07-3.05-3.25-5.19-2.07-1.84,1.02-1.05,3.32-1.12,5.08-.62,14.16,1.25,28.28.93,42.44-.09,3.96,1.74,4.5,4.44,2.28,8.04-6.62,15.09-4.79,21.94,1.95,2.24,2.2,5.14,3.71,7.5,5.8,3.74,3.32,3.96,6.4.23,9.76-4.19,3.78-8.78,7.14-13.34,10.48-6.85,5.01-13.96,9.69-20.73,14.81-6.9,5.22-14.1,5.79-21.53,1.86-7.06-3.74-10.52-9.87-10.51-17.94.02-34.16.78-68.34-.34-102.47-.5-15.23,17.43-24.72,29.8-17.06,9.38,5.8,17.85,12.8,26.52,19.55,15.77,12.27,31.81,24.18,47.58,36.43,12.87,9.99,26.32,19.28,38.41,30.3,3.3,3.01,7.23,5.34,10.85,8,2.13,1.57,3.12.67,3.13-1.58.03-9.5.47-19.03-.27-28.47-.39-5-5.87-6.88-9.54-9.52-8.93-6.42-17.44-13.34-25.55-20.74-4.25-3.87-3.94-4.87.79-8.19,11.71-8.23,23.28-16.66,35.15-24.66,9.64-6.5,19.13-5.08,26.39,3.36,3.49,4.06,4.06,9.05,4.08,14.09.08,17.16.03,34.33.03,51.49.04,0,.08,0,.13,0Z"/>
</svg>